<svg id="visual" viewBox="0 0 1920 200" width="1920" height="200" xmlns="http://www.w3.org/2000/svg" xmlns:xlink="http://www.w3.org/1999/xlink" version="1.1"><path d="M1516 200L1506.3 183.3C1496.7 166.7 1477.3 133.3 1470.8 100C1464.3 66.7 1470.7 33.3 1473.8 16.7L1477 0L1920 0L1920 16.7C1920 33.3 1920 66.7 1920 100C1920 133.3 1920 166.7 1920 183.3L1920 200Z" fill="#358ce6"></path><path d="M1362 200L1355.7 183.3C1349.3 166.7 1336.7 133.3 1333.5 100C1330.3 66.7 1336.7 33.3 1339.8 16.7L1343 0L1478 0L1474.8 16.7C1471.7 33.3 1465.3 66.7 1471.8 100C1478.3 133.3 1497.7 166.7 1507.3 183.3L1517 200Z" fill="#317ed3"></path><path d="M1132 200L1125.5 183.3C1119 166.7 1106 133.3 1106 100C1106 66.7 1119 33.3 1125.5 16.7L1132 0L1344 0L1340.8 16.7C1337.7 33.3 1331.3 66.7 1334.5 100C1337.7 133.3 1350.3 166.7 1356.7 183.3L1363 200Z" fill="#2d6fc0"></path><path d="M844 200L837.5 183.3C831 166.7 818 133.3 821.2 100C824.3 66.7 843.7 33.3 853.3 16.7L863 0L1133 0L1126.5 16.7C1120 33.3 1107 66.7 1107 100C1107 133.3 1120 166.7 1126.5 183.3L1133 200Z" fill="#2862ad"></path><path d="M690 200L680.5 183.3C671 166.7 652 133.3 648.8 100C645.7 66.7 658.3 33.3 664.7 16.7L671 0L864 0L854.3 16.7C844.7 33.3 825.3 66.7 822.2 100C819 133.3 832 166.7 838.5 183.3L845 200Z" fill="#22549b"></path><path d="M556 200L546.3 183.3C536.7 166.7 517.3 133.3 514.2 100C511 66.7 524 33.3 530.5 16.7L537 0L672 0L665.7 16.7C659.3 33.3 646.7 66.7 649.8 100C653 133.3 672 166.7 681.5 183.3L691 200Z" fill="#1c4789"></path><path d="M441 200L431.3 183.3C421.7 166.7 402.3 133.3 399 100C395.7 66.7 408.3 33.3 414.7 16.7L421 0L538 0L531.5 16.7C525 33.3 512 66.7 515.2 100C518.3 133.3 537.7 166.7 547.3 183.3L557 200Z" fill="#153b77"></path><path d="M0 200L0 183.3C0 166.7 0 133.3 0 100C0 66.7 0 33.3 0 16.7L0 0L422 0L415.7 16.7C409.3 33.3 396.7 66.7 400 100C403.3 133.3 422.7 166.7 432.3 183.3L442 200Z" fill="#0d2f66"></path></svg>