<?xml version="1.0" standalone="no"?><svg xmlns="http://www.w3.org/2000/svg" viewBox="0 0 1440 320"><defs><linearGradient id="sw-gradient-0" x1="0" x2="0" y1="100%" y2="0"><stop stop-color="rgba(27.839, 100.091, 208.468, 1)" offset="0%"/><stop stop-color="rgba(22.534, 164.482, 255, 1)" offset="100%"/></linearGradient></defs><path fill="url(#sw-gradient-0)" fill-opacity="1" d="M0,96L40,128C80,160,160,224,240,240C320,256,400,224,480,186.7C560,149,640,107,720,85.3C800,64,880,64,960,85.3C1040,107,1120,149,1200,144C1280,139,1360,85,1400,58.7L1440,32L1440,320L1400,320C1360,320,1280,320,1200,320C1120,320,1040,320,960,320C880,320,800,320,720,320C640,320,560,320,480,320C400,320,320,320,240,320C160,320,80,320,40,320L0,320Z"></path></svg>